HIERARCHY
ROOT Hips
{
	OFFSET 0.00000 0.00000 0.00000
	CHANNELS 6 Xposition Yposition Zposition Zrotation Yrotation Xrotation 
	JOINT LHipJoint
	{
		OFFSET 0 0 0
		CHANNELS 3 Zrotation Yrotation Xrotation
		JOINT LeftUpLeg
		{
			OFFSET 1.34019 -1.87553 0.90315
			CHANNELS 3 Zrotation Yrotation Xrotation
			JOINT LeftLeg
			{
				OFFSET 2.55316 -7.01474 0.00000
				CHANNELS 3 Zrotation Yrotation Xrotation
				JOINT LeftFoot
				{
					OFFSET 2.64657 -7.27139 0.00000
					CHANNELS 3 Zrotation Yrotation Xrotation
					JOINT LeftToeBase
					{
						OFFSET 0.24207 -0.66507 2.14489
						CHANNELS 3 Zrotation Yrotation Xrotation
						End Site
						{
							OFFSET 0.00000 -0.00000 1.12451
						}
					}
				}
			}
		}
	}
	JOINT RHipJoint
	{
		OFFSET 0 0 0
		CHANNELS 3 Zrotation Yrotation Xrotation
		JOINT RightUpLeg
		{
			OFFSET -1.28320 -1.87553 0.90315
			CHANNELS 3 Zrotation Yrotation Xrotation
			JOINT RightLeg
			{
				OFFSET -2.60484 -7.15674 0.00000
				CHANNELS 3 Zrotation Yrotation Xrotation
				JOINT RightFoot
				{
					OFFSET -2.60296 -7.15159 0.00000
					CHANNELS 3 Zrotation Yrotation Xrotation
					JOINT RightToeBase
					{
						OFFSET -0.31082 -0.85398 2.28998
						CHANNELS 3 Zrotation Yrotation Xrotation
						End Site
						{
							OFFSET -0.00000 -0.00000 1.21611
						}
					}
				}
			}
		}
	}
	JOINT LowerBack
	{
		OFFSET 0 0 0
		CHANNELS 3 Zrotation Yrotation Xrotation
		JOINT Spine
		{
			OFFSET -0.00160 2.05581 -0.15156
			CHANNELS 3 Zrotation Yrotation Xrotation
			JOINT Spine1
			{
				OFFSET 0.04594 2.06326 -0.01617
				CHANNELS 3 Zrotation Yrotation Xrotation
				JOINT Neck
				{
					OFFSET 0 0 0
					CHANNELS 3 Zrotation Yrotation Xrotation
					JOINT Neck1
					{
						OFFSET 0.03753 1.73883 0.26751
						CHANNELS 3 Zrotation Yrotation Xrotation
						JOINT Head
						{
							OFFSET -0.09795 1.76129 -0.31794
							CHANNELS 3 Zrotation Yrotation Xrotation
							End Site
							{
								OFFSET -0.03611 1.79987 -0.13846
							}
						}
					}
				}
				JOINT LeftShoulder
				{
					OFFSET 0 0 0
					CHANNELS 3 Zrotation Yrotation Xrotation
					JOINT LeftArm
					{
						OFFSET 3.30667 1.29205 -0.22445
						CHANNELS 3 Zrotation Yrotation Xrotation
						JOINT LeftForeArm
						{
							OFFSET 4.92785 -0.00000 -0.00000
							CHANNELS 3 Zrotation Yrotation Xrotation
							JOINT LeftHand
							{
								OFFSET 3.44052 -0.00000 0.00000
								CHANNELS 3 Zrotation Yrotation Xrotation
								JOINT LeftFingerBase
								{
									OFFSET 0 0 0
									CHANNELS 3 Zrotation Yrotation Xrotation
									JOINT LeftHandIndex1
									{
										OFFSET 0.65433 -0.00000 0.00000
										CHANNELS 3 Zrotation Yrotation Xrotation
										End Site
										{
											OFFSET 0.52753 -0.00000 0.00000
										}
									}
								}
								JOINT LThumb
								{
									OFFSET 0 0 0
									CHANNELS 3 Zrotation Yrotation Xrotation
									End Site
									{
										OFFSET 0.53559 -0.00000 0.53559
									}
								}
							}
						}
					}
				}
				JOINT RightShoulder
				{
					OFFSET 0 0 0
					CHANNELS 3 Zrotation Yrotation Xrotation
					JOINT RightArm
					{
						OFFSET -3.20032 1.49783 -0.27688
						CHANNELS 3 Zrotation Yrotation Xrotation
						JOINT RightForeArm
						{
							OFFSET -5.09181 -0.00000 -0.00000
							CHANNELS 3 Zrotation Yrotation Xrotation
							JOINT RightHand
							{
								OFFSET -3.49865 -0.00000 -0.00000
								CHANNELS 3 Zrotation Yrotation Xrotation
								JOINT RightFingerBase
								{
									OFFSET 0 0 0
									CHANNELS 3 Zrotation Yrotation Xrotation
									JOINT RightHandIndex1
									{
										OFFSET -0.66641 -0.00000 0.00000
										CHANNELS 3 Zrotation Yrotation Xrotation
										End Site
										{
											OFFSET -0.53728 -0.00000 0.00000
										}
									}
								}
								JOINT RThumb
								{
									OFFSET 0 0 0
									CHANNELS 3 Zrotation Yrotation Xrotation
									End Site
									{
										OFFSET -0.54548 -0.00000 0.54548
									}
								}
							}
						}
					}
				}
			}
		}
	}
}
MOTION
Frames: 14
Frame Time: .0083333
1.0352 17.8077 -29.5294 0 0 0 0 0 0 -21 0 0 0 0 0 0 0 0 0 0 0 0 0 0 21 0 0 0 0 0 0 0 0 0 0 0 0 0 0 0 0 0 0 0 0 0 0 -16 0 0 21 0 0 11 0 0 0 -8 0 0 0 0 0 0 0 0 0 0 0 0 0 0 0 0 0 0 0 0 8 0 0 0 0 0 0 0 0 0 0 0 0 0 0 0 0 0
1.0352 17.8077 -29.5294 -1.0200 6.8826 -1.2653 0.0000 0.0000 0.0000 -25.2249 0.7756 -3.8986 1.6541 8.1050 23.0336 0.4631 6.5766 -16.9265 0.1312 -2.3344 -6.4309 0.0000 0.0000 0.0000 12.8180 -1.8704 -20.3028 -14.2332 -19.1832 72.9153 0.1417 -12.0975 6.3621 -0.0071 0.5455 -1.4990 -7.2247 -0.4320 7.1033 2.2362 -1.0981 -0.6209 6.5493 -0.3406 -4.4694 8.9210 2.1846 -17.4658 -3.7512 1.4425 21.3212 -2.6027 0.9690 9.7504 0.0000 0.0000 0.0000 -84.8163 5.5682 25.9348 14.2436 -23.0819 -2.9229 -0.0000 -0.0000 3.8561 12.7463 -1.7758 -0.4016 -7.1250 0.0000 -0.0000 -10.6612 28.0995 4.4542 0.0000 0.0000 0.0000 83.1017 -9.6170 8.6908 -17.9579 28.1032 -4.5294 0.0000 -0.0000 -8.3400 -17.4730 2.3225 -0.7308 7.1250 -0.0000 -0.0000 7.0012 -27.5247 2.9940
1.0345 17.8063 -29.5261 -0.9706 6.9358 -1.2403 0.0000 0.0000 0.0000 -25.3401 0.5747 -3.8626 1.6659 8.1325 23.1173 0.4588 6.8355 -17.0974 0.1114 -2.1519 -5.9256 0.0000 0.0000 0.0000 12.7561 -1.9174 -20.2833 -14.2535 -19.1891 72.9773 0.1461 -12.0816 6.2748 -0.0059 0.4978 -1.3679 -7.2510 -0.4410 7.0441 2.2442 -1.1071 -0.5899 6.5717 -0.3483 -4.4012 8.9847 2.1767 -17.4827 -3.8686 1.4400 21.2859 -2.6547 0.9587 9.7418 0.0000 0.0000 0.0000 -84.8182 5.5652 25.8637 14.2784 -23.1313 -2.9366 -0.0000 -0.0000 3.7051 12.7163 -1.7504 -0.3949 -7.1250 0.0000 -0.0000 -10.6865 28.1251 4.4586 0.0000 0.0000 0.0000 83.0783 -9.6392 8.7492 -17.9689 28.1174 -4.5346 0.0000 -0.0000 -8.3134 -17.5727 2.2266 -0.7049 7.1250 -0.0000 -0.0000 6.9303 -27.6237 2.9470
1.0338 17.8029 -29.5239 -1.0365 6.8824 -1.2446 0.0000 0.0000 0.0000 -25.3595 0.1929 -3.8025 1.6798 8.1645 23.2148 0.4175 7.4473 -17.1477 0.1076 -2.1149 -5.8232 0.0000 0.0000 0.0000 12.8450 -1.8631 -20.2730 -14.2609 -19.1913 72.9997 0.1359 -11.9437 6.3181 -0.0091 0.6145 -1.6886 -7.1663 -0.4200 6.9879 2.2861 -1.0652 -0.5543 6.5615 -0.3329 -4.3394 8.9568 2.1656 -17.4628 -3.8924 1.4404 21.2836 -2.6584 0.9539 9.7369 0.0000 -0.0000 0.0000 -84.8178 5.5025 25.8055 14.2658 -23.1134 -2.9316 -0.0000 -0.0000 3.5428 12.5395 -1.6357 -0.3638 -7.1250 0.0000 -0.0000 -10.8330 28.2401 4.4917 0.0000 -0.0000 0.0000 83.0819 -9.5334 8.6164 -17.8850 28.0097 -4.4951 0.0000 -0.0000 -8.1395 -17.6122 2.3374 -0.7418 7.1250 -0.0000 -0.0000 6.8938 -27.5080 2.9502
1.0348 17.8019 -29.5188 -1.1066 6.8759 -1.2751 0.0000 0.0000 0.0000 -25.3690 0.0204 -3.7507 1.6948 8.1992 23.3209 0.3934 7.8554 -17.2387 0.0819 -1.8459 -5.0799 0.0000 0.0000 0.0000 12.9392 -1.8665 -20.2183 -14.2625 -19.1917 73.0046 0.1371 -11.9982 6.3467 -0.0086 0.5973 -1.6414 -7.0179 -0.4233 7.0556 2.3158 -1.0607 -0.5714 6.5096 -0.3307 -4.3980 8.9003 2.1555 -17.5007 -3.9026 1.4418 21.3547 -2.6535 0.9499 9.7685 0.0000 -0.0000 0.0000 -84.8182 5.5921 25.7589 14.2834 -23.1384 -2.9385 -0.0000 -0.0000 3.3997 12.7258 -1.7617 -0.3978 -7.1250 0.0000 -0.0000 -10.6782 28.1137 4.4579 0.0000 -0.0000 0.0000 83.0454 -9.5662 8.6530 -17.8731 27.9944 -4.4895 0.0000 -0.0000 -8.1604 -17.5300 2.2780 -0.7193 7.1250 -0.0000 -0.0000 6.9601 -27.5705 2.9686
1.0358 17.8000 -29.5148 -1.1540 6.8389 -1.2867 0.0000 0.0000 0.0000 -25.4086 -0.2157 -3.7092 1.7116 8.2376 23.4382 0.3656 8.3113 -17.3461 0.0689 -1.6937 -4.6599 0.0000 0.0000 0.0000 13.0020 -1.8382 -20.1781 -14.2653 -19.1925 73.0129 0.1349 -11.9882 6.3745 -0.0088 0.6045 -1.6612 -6.9131 -0.4168 7.0565 2.3468 -1.0414 -0.5632 6.4805 -0.3237 -4.3939 8.8737 2.1493 -17.5207 -3.9384 1.4478 21.3817 -2.6614 0.9468 9.7819 0.0000 0.0000 0.0000 -84.8282 5.6146 25.6704 14.2959 -23.1562 -2.9435 -0.0000 -0.0000 3.2805 12.7475 -1.7686 -0.4000 -7.1250 0.0000 -0.0000 -10.6610 28.1067 4.4523 0.0000 0.0000 0.0000 83.0116 -9.5478 8.6519 -17.8362 27.9470 -4.4722 0.0000 -0.0000 -8.0965 -17.5133 2.3012 -0.7259 7.1250 -0.0000 -0.0000 6.9716 -27.5466 2.9775
1.0371 17.7981 -29.5108 -1.2200 6.7717 -1.3014 0.0000 0.0000 0.0000 -25.4326 -0.4525 -3.6771 1.7315 8.2829 23.5766 0.3360 8.7860 -17.4672 0.0589 -1.5660 -4.3077 0.0000 0.0000 0.0000 13.0913 -1.7784 -20.1314 -14.2662 -19.1928 73.0157 0.1333 -11.9923 6.4051 -0.0087 0.6028 -1.6564 -6.7597 -0.4193 7.1312 2.3731 -1.0353 -0.5589 6.4217 -0.3224 -4.4342 8.8027 2.1113 -17.4663 -3.9812 1.4295 21.2676 -2.6655 0.9256 9.7290 -0.0000 0.0000 0.0000 -84.8346 5.6154 25.5129 14.3075 -23.1725 -2.9480 -0.0000 -0.0000 3.1868 12.7752 -1.7822 -0.4040 -7.1250 0.0000 -0.0000 -10.6384 28.0931 4.4461 -0.0000 0.0000 0.0000 82.9722 -9.4879 8.7038 -17.7906 27.8882 -4.4508 0.0000 -0.0000 -8.0129 -17.4872 2.3447 -0.7384 7.1250 -0.0000 -0.0000 6.9891 -27.5016 2.9926
1.0384 17.7961 -29.5071 -1.2987 6.6773 -1.3159 0.0000 0.0000 0.0000 -25.4421 -0.6734 -3.6501 1.7512 8.3274 23.7129 0.3064 9.2511 -17.5965 0.0503 -1.4473 -3.9806 0.0000 0.0000 0.0000 13.2009 -1.6883 -20.0819 -14.2686 -19.1935 73.0232 0.1331 -12.0093 6.4235 -0.0082 0.5859 -1.6101 -6.3268 -0.6845 7.2182 2.3178 -1.3601 -0.5832 6.1505 -0.4931 -4.4661 8.7811 2.1608 -17.6020 -4.3282 1.5822 21.6773 -2.7711 0.9605 9.9112 0.0000 0.0000 0.0000 -84.8483 5.8372 24.6392 14.3716 -23.2635 -2.9733 -0.0000 -0.0000 3.0883 12.8120 -1.7871 -0.4063 -7.1250 0.0000 -0.0000 -10.6099 28.0883 4.4350 0.0000 0.0000 0.0000 82.8666 -9.3435 9.4877 -17.7048 27.7775 -4.4108 0.0000 -0.0000 -7.8866 -17.4666 2.3953 -0.7534 7.1250 -0.0000 -0.0000 7.0021 -27.4490 3.0069
1.0395 17.7938 -29.5039 -1.3739 6.5525 -1.3260 0.0000 0.0000 0.0000 -25.4548 -0.8941 -3.6241 1.7693 8.3681 23.8379 0.2739 9.7230 -17.7162 0.0440 -1.3544 -3.7246 0.0000 0.0000 0.0000 13.3102 -1.5668 -20.0381 -14.2728 -19.1947 73.0359 0.1323 -12.0210 6.4470 -0.0075 0.5596 -1.5377 -5.9832 -0.8649 7.2898 2.2897 -1.5763 -0.5971 5.9486 -0.6077 -4.4967 8.7603 2.1857 -17.6970 -4.6033 1.6868 21.9545 -2.8563 0.9786 10.0363 0.0000 -0.0000 0.0000 -84.8688 5.9888 23.9576 14.4222 -23.3351 -2.9933 -0.0000 -0.0000 3.0234 12.8432 -1.7911 -0.4083 -7.1250 0.0000 -0.0000 -10.5857 28.0843 4.4255 0.0000 -0.0000 0.0000 82.7717 -9.2258 10.0821 -17.6393 27.6928 -4.3803 0.0000 -0.0000 -7.7898 -17.4514 2.4413 -0.7672 7.1250 -0.0000 -0.0000 7.0111 -27.4012 3.0188
1.0412 17.7908 -29.5005 -1.3989 6.4129 -1.3364 0.0000 0.0000 0.0000 -25.5203 -1.0947 -3.5807 1.7834 8.3996 23.9345 0.2401 10.1765 -17.8182 0.0383 -1.2629 -3.4725 0.0000 0.0000 0.0000 13.3549 -1.4444 -19.9898 -14.2795 -19.1966 73.0561 0.1299 -12.0056 6.4725 -0.0065 0.5213 -1.4325 -5.7236 -1.0134 7.3279 2.2597 -1.7551 -0.6031 5.7881 -0.7028 -4.5060 8.7583 2.2201 -17.8055 -4.8531 1.7938 22.2518 -2.9362 1.0019 10.1725 -0.0000 0.0000 0.0000 -84.8972 6.1246 23.3480 14.4663 -23.3974 -3.0108 -0.0000 -0.0000 2.9633 12.8772 -1.7937 -0.4100 -7.1250 0.0000 -0.0000 -10.5595 28.0817 4.4149 -0.0000 0.0000 0.0000 82.6749 -9.1343 10.6225 -17.5899 27.6289 -4.3574 0.0000 -0.0000 -7.7229 -17.4558 2.4626 -0.7741 7.1250 -0.0000 -0.0000 7.0065 -27.3791 3.0205
1.0433 17.7873 -29.4971 -1.3680 6.2660 -1.3460 0.0000 0.0000 0.0000 -25.6403 -1.2619 -3.5202 1.7918 8.4182 23.9916 0.2069 10.5863 -17.8927 0.0332 -1.1758 -3.2328 0.0000 0.0000 0.0000 13.3272 -1.3299 -19.9428 -14.2891 -19.1994 73.0853 0.1254 -11.9574 6.5028 -0.0059 0.4980 -1.3683 -5.6563 -1.0346 7.3096 2.2604 -1.7761 -0.5887 5.7515 -0.7162 -4.4793 8.7539 2.2470 -17.8895 -4.9522 1.8537 22.4270 -2.9661 1.0192 10.2567 -0.0000 -0.0000 0.0000 -84.9362 6.1707 23.0613 14.4882 -23.4283 -3.0195 -0.0000 -0.0000 2.9112 12.9251 -1.7978 -0.4125 -7.1250 0.0000 -0.0000 -10.5224 28.0777 4.3999 -0.0000 -0.0000 0.0000 82.5930 -9.1045 10.8458 -17.5726 27.6064 -4.3493 0.0000 -0.0000 -7.7022 -17.4604 2.4639 -0.7747 7.1250 -0.0000 -0.0000 7.0029 -27.3777 3.0191
1.0461 17.7833 -29.4935 -1.2812 6.1106 -1.3540 0.0000 0.0000 0.0000 -25.8149 -1.3912 -3.4459 1.7944 8.4241 24.0099 0.1755 10.9475 -17.9429 0.0293 -1.1043 -3.0358 0.0000 0.0000 0.0000 13.2241 -1.2258 -19.8990 -14.3009 -19.2028 73.1215 0.1187 -11.8796 6.5433 -0.0085 0.5948 -1.6345 -5.8229 -0.8807 7.2361 2.3059 -1.5788 -0.5493 5.8716 -0.6169 -4.4191 8.7314 2.2472 -17.8974 -4.8448 1.8315 22.3712 -2.9257 1.0190 10.2355 0.0000 0.0000 0.0000 -84.9837 6.0845 23.2186 14.4773 -23.4129 -3.0152 -0.0000 -0.0000 2.8582 12.9589 -1.7928 -0.4125 -7.1250 0.0000 -0.0000 -10.4971 28.0828 4.3877 0.0000 0.0000 0.0000 82.5385 -9.1402 10.6042 -17.5848 27.6222 -4.3550 0.0000 -0.0000 -7.7197 -17.4761 2.4420 -0.7686 7.1250 -0.0000 -0.0000 6.9921 -27.4003 3.0107
1.0494 17.7791 -29.4897 -1.1506 5.9492 -1.3590 0.0000 0.0000 0.0000 -26.0262 -1.4766 -3.3715 1.7936 8.4222 24.0041 0.1496 11.2387 -17.9853 0.0266 -1.0520 -2.8920 0.0000 0.0000 0.0000 13.0619 -1.1333 -19.8575 -14.3140 -19.2065 73.1611 0.1121 -11.7915 6.5726 -0.0113 0.6859 -1.8849 -6.1225 -0.6217 7.1629 2.3637 -1.2512 -0.4805 6.0675 -0.4510 -4.3461 8.6818 2.1853 -17.8459 -4.6390 1.7062 22.0781 -2.8555 0.9774 10.1091 -0.0000 -0.0000 0.0000 -85.0203 5.8734 23.6334 14.4455 -23.3680 -3.0026 -0.0000 -0.0000 2.7978 12.9951 -1.7680 -0.4079 -7.1250 0.0000 -0.0000 -10.4717 28.1079 4.3704 -0.0000 -0.0000 0.0000 82.5228 -9.1572 10.0649 -17.6044 27.6476 -4.3641 0.0000 -0.0000 -7.7347 -17.4903 2.4264 -0.7643 7.1250 -0.0000 -0.0000 6.9822 -27.4164 3.0037
1.0523 17.7752 -29.4867 -1.0156 5.7952 -1.3585 0.0000 0.0000 0.0000 -26.2240 -1.5172 -3.3240 1.7922 8.4192 23.9946 0.1312 11.4442 -18.0169 0.0245 -1.0107 -2.7783 0.0000 0.0000 0.0000 12.8946 -1.0534 -19.8281 -14.3264 -19.2101 73.1988 0.1077 -11.7194 6.5816 -0.0148 0.7860 -2.1602 -6.4552 -0.3568 7.0762 2.4326 -0.9170 -0.4235 6.2945 -0.2804 -4.2823 8.6534 2.1444 -17.8057 -4.4245 1.6031 21.8277 -2.7839 0.9491 10.0030 -0.0000 0.0000 0.0000 -85.0743 5.6818 24.0673 14.4097 -23.3173 -2.9884 -0.0000 -0.0000 2.7369 13.0484 -1.7576 -0.4073 -7.1250 0.0000 -0.0000 -10.4319 28.1185 4.3506 -0.0000 0.0000 0.0000 82.4996 -9.1905 9.4838 -17.6163 27.6630 -4.3696 0.0000 -0.0000 -7.7312 -17.5101 2.4155 -0.7618 7.1250 -0.0000 -0.0000 6.9676 -27.4276 2.9955
